<?xml version="1.0" encoding="utf-8"?>
<!-- Generator: Adobe Illustrator 18.0.0, SVG Export Plug-In . SVG Version: 6.00 Build 0)  -->
<!DOCTYPE svg PUBLIC "-//W3C//DTD SVG 1.1//EN" "http://www.w3.org/Graphics/SVG/1.1/DTD/svg11.dtd">
<svg version="1.1" id="Layer_1" xmlns="http://www.w3.org/2000/svg" xmlns:xlink="http://www.w3.org/1999/xlink" x="0px" y="0px"
	 viewBox="2 11 60 42" enable-background="new 2 11 60 42" xml:space="preserve">
<g>
	<path fill="#6E8189" d="M61.1,11.9c-7.7-1.5-14.5-0.1-19.2,6.8c-0.3,5.3-0.1,10.5-0.1,10.5s-5.4,3.2-9.7,9c-4.3-5.8-9.7-9-9.7-9
		s0.2-5.3-0.1-10.5c-4.7-6.8-11.5-8.2-19.2-6.8c2.3,3,3,11.4,1,15.8c3.5,1.7,7.7,7.2,8.2,11.5C20,41,27.1,44.6,32,53
		c4.9-8.4,12-12,19.8-13.7c0.6-4.3,4.7-9.8,8.2-11.5C58,23.3,58.7,14.8,61.1,11.9z"/>
	<path fill="#302C3B" d="M60,27.7c-0.2-0.5-16.6-9.2-16.4-9.6c3.7-5,9.9-6.8,18.3-6c-6.2-2.6-16.3-0.6-20,4.9
		c-2.4-1.8-3.9,0.1-3.7,0c1.8-0.5,2.7,1,2.6,2.8c-0.3,5.3,0,8.4,0,8.4s-4.6,2.2-8.9,8c-4.3-5.8-8.9-8-8.9-8s0.3-3.1,0-8.4
		c-0.1-1.8,0.8-3.3,2.6-2.8c0.2,0.1-1.3-1.8-3.7,0c-3.8-5.5-13.9-7.5-20-4.9c8.4-0.8,14.6,1,18.3,6c0.3,0.4-16.1,9.1-16.4,9.6
		c0.4,0.2,18.1-8.5,17.3-7.5c-7.6,9.2-9.1,18.7-9,19c0,0.4,3.8-9.4,9.3-16.8c0.4-0.5,0.1,5,0.1,7.4c6.6,3.7,10.5,9.7,10.5,9.7
		s3.9-6,10.5-9.7c-0.1-2.5-0.3-7.9,0.1-7.4c5.5,7.4,9.2,17.2,9.3,16.8c0-0.4-1.4-9.9-9-19C42,19.3,59.7,27.9,60,27.7z"/>
	<path fill="#302C3B" d="M26.1,31.4c-3.9-4.7-1.1-7.2-1.8-10.4c2.7,0,3.3,3.8,7,4.4C30.8,25.8,26.5,30.8,26.1,31.4z"/>
	<path fill="#4E5E67" d="M26.9,31.4c-3.6-3.9-1.7-6.6-2-8.4c2,0.7,1.2,4,4.9,4.7C29.3,28,27.3,30.8,26.9,31.4z"/>
	<path fill="#302C3B" d="M37.9,31.4c3.9-4.7,1.1-7.2,1.8-10.4c-2.7,0-3.3,3.8-7,4.4C33.2,25.8,37.5,30.8,37.9,31.4z"/>
	<path fill="#4E5E67" d="M37.1,31.4c3.6-3.9,1.7-6.6,2-8.4c-2,0.7-1.2,4-4.9,4.7C34.7,28,36.7,30.8,37.1,31.4z"/>
	<path fill="#302C3B" d="M27.1,33.5c-7.4-11.3,17.2-11.3,9.8,0c2.3,3.1,2.5,5.9,2.5,5.9s-0.2-0.3-0.7-0.7c0.1,0.6,0.3,1.7,0.2,3.2
		c0,0-0.2-0.3-0.5-0.7c0,0.6,0,1.5-0.1,2.6l-0.6-1c-0.4,1.2-0.8,2.4-1.2,3.4v-2.5c0,0-1.9,10.1-2.2,6.1c-1.9,4.2-2.6,4.2-4.5,0
		c-0.3,4-2.2-6.1-2.2-6.1v2.5c-0.4-1-0.9-2.2-1.2-3.4l-0.6,1c-0.2-1.1-0.2-1.9-0.1-2.6c-0.3,0.4-0.5,0.7-0.5,0.7
		c-0.1-1.5,0-2.6,0.2-3.2c-0.5,0.3-0.7,0.7-0.7,0.7S24.8,36.7,27.1,33.5z"/>
	<path fill="#6E8189" d="M28.7,38.6c0-0.6,0.3-0.8,0.3-0.8c0.3,1,1.4,1.7,1.4,1.7c-0.3-0.5,0-1,0-1c0.5,0.6,1.6,1.4,1.6,1.4
		s1.1-0.7,1.6-1.4c0,0,0.3,0.5,0,1c0,0,1.1-0.7,1.4-1.7c0,0,0.3,0.2,0.3,0.8l1.1-1.3c-0.4,1.5-1.1,2.4-2,2.8c0,0,0.3-0.6,0.3-1
		c0,0-1,1.1-2.1,1.5c0,0,0.3-0.5,0.4-1.1l-1,1.1l-1-1.1c0.1,0.5,0.4,1.1,0.4,1.1c-1.1-0.4-2.1-1.5-2.1-1.5c0.1,0.4,0.3,1,0.3,1
		c-0.9-0.4-1.6-1.3-2-2.8L28.7,38.6z"/>
	<path fill="#1A1626" d="M28.3,29.7c-1.4,0-1.4-2.5,0-2.5C29.7,27.2,29.7,29.7,28.3,29.7z"/>
	<path id="Shape_4_" fill="#FFFFFF" d="M28.1,28c0,0.4-0.6,0.4-0.6,0C27.5,27.6,28.1,27.6,28.1,28L28.1,28z"/>
	<path fill="#1A1626" d="M35.7,29.7c-1.4,0-1.4-2.5,0-2.5C37.1,27.2,37.1,29.7,35.7,29.7z"/>
	<path id="Shape_11_" fill="#FFFFFF" d="M35.5,28c0,0.4-0.6,0.4-0.6,0C34.9,27.6,35.5,27.6,35.5,28L35.5,28z"/>
	<path fill="#4E5E67" d="M30,30.2c0-1,0.9-1.2,2-1.2s2,0.2,2,1.2c0,0.8-1.6,1.5-2,1.5S30,31,30,30.2z"/>
	<path fill="#6E8189" d="M30.3,30.2c0-0.8,0.8-1,1.7-1C33.2,29.3,30.3,31.4,30.3,30.2z"/>
</g>
</svg>
